<?xml version="1.0" encoding="UTF-8"?>
<svg version="1.1" viewBox="0 0 1000 1000" width="1000" height="1000" xmlns="http://www.w3.org/2000/svg">
<path transform="translate(128,211)" d="m0 0h166l19 41 16 36 19 41 16 36 19 41 2 3 18-39 16-36 19-41 16-36 19-41 2-5h166l-1 5-12 25 1 5 12 25 16 33 12 25 16 33 12 25 16 33 12 25 16 33 12 25 16 33 12 25 16 33 12 25 16 33 12 25 16 33 12 25 2 4v3h-166l-17-37-16-36-19-41-16-36-19-41-3-7-8 16-16 35-16 36-19 41-16 36-15 33-1 1-136 1-8-16-20-41-11-23-16-33-12-25-16-33-12-25-16-33-12-25-16-33-12-25-16-33-12-25-16-33-12-25-16-33-12-25-16-33-5-11z" fill="#FEFEFE"/>
<path transform="translate(626,243)" d="m0 0 3 3 12 25 16 33 12 25 16 33 12 25 16 33 12 25 16 33 12 25 16 33 12 25 16 33 12 25 16 33 12 25 16 33 12 25 2 4v3h-166l-17-37-16-36-19-41-16-36-19-41-3-7-8 16-16 35-16 36-19 41-16 36-15 33-1 1h-134l2-6 19-39 11-23 16-33 12-25 16-33 12-25 16-33 12-25 16-33 12-25 16-33 12-25 16-33 12-25 16-33 12-25z" fill="#FEBD01"/>
</svg>
